<mxfile host="app.diagrams.net" modified="2024-08-04T23:33:16.317Z" agent="Mozilla/5.0 (Windows NT 10.0; Win64; x64) AppleWebKit/537.36 (KHTML, like Gecko) Chrome/127.0.0.0 Safari/537.36" version="24.3.1" etag="8hO4PY1cNBzrIETM-WEU" type="github">
  <diagram name="Page-1" id="O5wcl6I8jhwHgpYuOzai">
    <mxGraphModel>
      <root>
        <mxCell id="0" />
        <mxCell id="1" parent="0" />
      </root>
    </mxGraphModel>
  </diagram>
</mxfile>
